<svg width="51" height="55" viewBox="0 0 51 55" fill="none" xmlns="http://www.w3.org/2000/svg">
<rect x="10.2012" y="26.4465" width="5.72641" height="5.72641" stroke="#1C1F35" stroke-width="0.954401" stroke-linecap="round" stroke-linejoin="round"/>
<rect x="10.2012" y="38.8538" width="5.72641" height="5.72641" stroke="#1C1F35" stroke-width="0.954401" stroke-linecap="round" stroke-linejoin="round"/>
<rect x="22.6079" y="26.4465" width="5.72641" height="5.72641" stroke="#1C1F35" stroke-width="0.954401" stroke-linecap="round" stroke-linejoin="round"/>
<rect x="22.6079" y="38.8538" width="5.72641" height="5.72641" stroke="#1C1F35" stroke-width="0.954401" stroke-linecap="round" stroke-linejoin="round"/>
<rect x="34.062" y="26.4465" width="5.72641" height="5.72641" fill="#FFD550" stroke="#1C1F35" stroke-width="0.954401" stroke-linecap="round" stroke-linejoin="round"/>
<rect x="34.062" y="38.8538" width="5.72641" height="5.72641" stroke="#1C1F35" stroke-width="0.954401" stroke-linecap="round" stroke-linejoin="round"/>
<path d="M49.3326 18.8113H0.658203V8.31291C0.658203 6.73161 1.9401 5.44971 3.52141 5.44971H46.4694C48.0507 5.44971 49.3326 6.73161 49.3326 8.31291V18.8113Z" fill="#FFD550"/>
<path d="M47.4238 5.13208H2.88514C1.65524 5.13208 0.658203 6.12911 0.658203 7.35902V51.8977C0.658203 53.1276 1.65524 54.1247 2.88514 54.1247H47.4238C48.6537 54.1247 49.6508 53.1276 49.6508 51.8977V7.35902C49.6508 6.12911 48.6537 5.13208 47.4238 5.13208Z" stroke="#1C1F35" stroke-width="0.954401" stroke-linecap="round" stroke-linejoin="round"/>
<path d="M38.5161 0.677734V9.58548" stroke="#1C1F35" stroke-width="0.954401" stroke-linecap="round" stroke-linejoin="round"/>
<path d="M11.792 0.677734V9.58548" stroke="#1C1F35" stroke-width="0.954401" stroke-linecap="round" stroke-linejoin="round"/>
<path d="M0.658203 18.4937H49.6508" stroke="#1C1F35" stroke-width="0.954401" stroke-linecap="round" stroke-linejoin="round"/>
</svg>
